<svg width="24" height="24" viewBox="0 0 24 24" fill="none" xmlns="http://www.w3.org/2000/svg">
<g id="Frame">
<path id="Vector" d="M13 16.938L13 19H18V21H6V19H11L11 16.938C9.0667 16.6942 7.28882 15.7533 6 14.2917C4.71119 12.8302 4.00003 10.9486 4 9L4 2H20L20 9C20 10.9486 19.2888 12.8302 18 14.2917C16.7112 15.7533 14.9333 16.6942 13 16.938ZM6 4L6 9C6 10.5913 6.63214 12.1174 7.75736 13.2426C8.88258 14.3679 10.4087 15 12 15C13.5913 15 15.1174 14.3679 16.2426 13.2426C17.3679 12.1174 18 10.5913 18 9L18 4H6ZM0 4H2V9H0V4ZM22 4H24V9H22V4Z" fill="url(#paint0_linear_13452_42314)"/>
<path id="Star 1" d="M12 5L12.8981 7.76393H15.8042L13.4531 9.47214L14.3511 12.2361L12 10.5279L9.64886 12.2361L10.5469 9.47214L8.19577 7.76393H11.1019L12 5Z" fill="white"/>
</g>
<defs>
<linearGradient id="paint0_linear_13452_42314" x1="24" y1="11.5" x2="-1.76051e-08" y2="11.5" gradientUnits="userSpaceOnUse">
<stop stop-color="#9C79FF"/>
<stop offset="0.994792" stop-color="#0FD4FF"/>
</linearGradient>
</defs>
</svg>
