<svg width="24" height="24" viewBox="0 0 24 24" fill="none" xmlns="http://www.w3.org/2000/svg">
<path d="M5.5 9.5H6.5V10.5H5.5V9.5Z" fill="white" fill-opacity="0.8" stroke="white"/>
<path d="M9.5 9.5H10.5V10.5H9.5V9.5Z" fill="white" fill-opacity="0.8" stroke="white"/>
<path d="M13.5 9.5H14.5V10.5H13.5V9.5Z" fill="white" fill-opacity="0.8" stroke="white"/>
<path d="M17.5 9.5H18.5V10.5H17.5V9.5Z" fill="white" stroke="white"/>
<path d="M6.5 14H5.5C5.22386 14 5 14.2239 5 14.5V15.5C5 15.7761 5.22386 16 5.5 16H6.5C6.77614 16 7 15.7761 7 15.5V14.5C7 14.2239 6.77614 14 6.5 14Z" fill="white"/>
<path d="M9.5 14.5H14.5V15.5H9.5V14.5Z" fill="white" fill-opacity="0.8" stroke="white"/>
<path d="M18.5 14H17.5C17.2239 14 17 14.2239 17 14.5V15.5C17 15.7761 17.2239 16 17.5 16H18.5C18.7761 16 19 15.7761 19 15.5V14.5C19 14.2239 18.7761 14 18.5 14Z" fill="white" fill-opacity="0.8"/>
<path d="M20.5 5.5H3.5C2.39543 5.5 1.5 6.39543 1.5 7.5V17.5C1.5 18.6046 2.39543 19.5 3.5 19.5H20.5C21.6046 19.5 22.5 18.6046 22.5 17.5V7.5C22.5 6.39543 21.6046 5.5 20.5 5.5Z" stroke="white" stroke-opacity="0.8" stroke-miterlimit="10"/>
<path d="M17 1.5H14.5C13.9696 1.5 13.4609 1.71071 13.0858 2.08579C12.7107 2.46086 12.5 2.96957 12.5 3.5V5" stroke="white" stroke-opacity="0.8" stroke-miterlimit="10" stroke-linecap="round"/>
</svg>
